<svg id="visual" viewBox="0 0 1940 1080" width="1940" height="1080" xmlns="http://www.w3.org/2000/svg" xmlns:xlink="http://www.w3.org/1999/xlink" version="1.1"><g fill="none" stroke="#ffcff8" stroke-width="4"><path d="M0 -85.9L19.3 -26.5L81.7 -26.5L31.2 10.1L50.5 69.5L0 32.8L-50.5 69.5L-31.2 10.1L-81.7 -26.5L-19.3 -26.5Z" transform="translate(711 1055)"></path><path d="M0 -5.7L1.3 -1.7L5.4 -1.7L2.1 0.7L3.3 4.6L0 2.2L-3.3 4.6L-2.1 0.7L-5.4 -1.7L-1.3 -1.7Z" transform="translate(1078 348)"></path><path d="M0 -20.8L4.7 -6.4L19.7 -6.4L7.5 2.5L12.2 16.8L0 7.9L-12.2 16.8L-7.5 2.5L-19.7 -6.4L-4.7 -6.4Z" transform="translate(1425 919)"></path><path d="M0 -84L18.9 -26L79.9 -26L30.5 9.9L49.4 68L0 32.1L-49.4 68L-30.5 9.9L-79.9 -26L-18.9 -26Z" transform="translate(152 278)"></path><path d="M0 -24.5L5.5 -7.6L23.3 -7.6L8.9 2.9L14.4 19.9L0 9.4L-14.4 19.9L-8.9 2.9L-23.3 -7.6L-5.5 -7.6Z" transform="translate(53 839)"></path><path d="M0 -76.5L17.2 -23.6L72.7 -23.6L27.8 9L44.9 61.8L0 29.2L-44.9 61.8L-27.8 9L-72.7 -23.6L-17.2 -23.6Z" transform="translate(1741 1067)"></path><path d="M0 -17.9L4 -5.5L17.1 -5.5L6.5 2.1L10.5 14.5L0 6.8L-10.5 14.5L-6.5 2.1L-17.1 -5.5L-4 -5.5Z" transform="translate(327 145)"></path><path d="M0 -11.3L2.5 -3.5L10.8 -3.5L4.1 1.3L6.7 9.2L0 4.3L-6.7 9.2L-4.1 1.3L-10.8 -3.5L-2.5 -3.5Z" transform="translate(613 548)"></path><path d="M0 -62.3L14 -19.2L59.2 -19.2L22.6 7.4L36.6 50.4L0 23.8L-36.6 50.4L-22.6 7.4L-59.2 -19.2L-14 -19.2Z" transform="translate(1054 1007)"></path><path d="M0 -40.6L9.1 -12.5L38.6 -12.5L14.7 4.8L23.9 32.8L0 15.5L-23.9 32.8L-14.7 4.8L-38.6 -12.5L-9.1 -12.5Z" transform="translate(1252 54)"></path><path d="M0 -73.6L16.5 -22.7L70 -22.7L26.7 8.7L43.3 59.6L0 28.1L-43.3 59.6L-26.7 8.7L-70 -22.7L-16.5 -22.7Z" transform="translate(312 1010)"></path><path d="M0 -11.3L2.5 -3.5L10.8 -3.5L4.1 1.3L6.7 9.2L0 4.3L-6.7 9.2L-4.1 1.3L-10.8 -3.5L-2.5 -3.5Z" transform="translate(976 843)"></path><path d="M0 -17L3.8 -5.2L16.2 -5.2L6.2 2L10 13.7L0 6.5L-10 13.7L-6.2 2L-16.2 -5.2L-3.8 -5.2Z" transform="translate(794 114)"></path><path d="M0 -64.2L14.4 -19.8L61 -19.8L23.3 7.6L37.7 51.9L0 24.5L-37.7 51.9L-23.3 7.6L-61 -19.8L-14.4 -19.8Z" transform="translate(1584 416)"></path><path d="M0 -35.9L8.1 -11.1L34.1 -11.1L13 4.2L21.1 29L0 13.7L-21.1 29L-13 4.2L-34.1 -11.1L-8.1 -11.1Z" transform="translate(1779 362)"></path><path d="M0 -45.3L10.2 -14L43.1 -14L16.5 5.3L26.6 36.7L0 17.3L-26.6 36.7L-16.5 5.3L-43.1 -14L-10.2 -14Z" transform="translate(637 25)"></path><path d="M0 -45.3L10.2 -14L43.1 -14L16.5 5.3L26.6 36.7L0 17.3L-26.6 36.7L-16.5 5.3L-43.1 -14L-10.2 -14Z" transform="translate(1007 537)"></path><path d="M0 -6.6L1.5 -2L6.3 -2L2.4 0.8L3.9 5.3L0 2.5L-3.9 5.3L-2.4 0.8L-6.3 -2L-1.5 -2Z" transform="translate(968 198)"></path><path d="M0 -34L7.6 -10.5L32.3 -10.5L12.3 4L20 27.5L0 13L-20 27.5L-12.3 4L-32.3 -10.5L-7.6 -10.5Z" transform="translate(593 359)"></path><path d="M0 -67L15 -20.7L63.7 -20.7L24.3 7.9L39.4 54.2L0 25.6L-39.4 54.2L-24.3 7.9L-63.7 -20.7L-15 -20.7Z" transform="translate(1538 704)"></path><path d="M0 -43.4L9.7 -13.4L41.3 -13.4L15.8 5.1L25.5 35.1L0 16.6L-25.5 35.1L-15.8 5.1L-41.3 -13.4L-9.7 -13.4Z" transform="translate(403 358)"></path><path d="M0 -36.8L8.3 -11.4L35 -11.4L13.4 4.3L21.6 29.8L0 14.1L-21.6 29.8L-13.4 4.3L-35 -11.4L-8.3 -11.4Z" transform="translate(1841 3)"></path><path d="M0 -62.3L14 -19.2L59.2 -19.2L22.6 7.4L36.6 50.4L0 23.8L-36.6 50.4L-22.6 7.4L-59.2 -19.2L-14 -19.2Z" transform="translate(329 700)"></path><path d="M0 -61.3L13.8 -19L58.3 -19L22.3 7.2L36.1 49.6L0 23.4L-36.1 49.6L-22.3 7.2L-58.3 -19L-13.8 -19Z" transform="translate(1898 614)"></path><path d="M0 -68L15.3 -21L64.6 -21L24.7 8L39.9 55L0 26L-39.9 55L-24.7 8L-64.6 -21L-15.3 -21Z" transform="translate(1875 920)"></path><path d="M0 -34L7.6 -10.5L32.3 -10.5L12.3 4L20 27.5L0 13L-20 27.5L-12.3 4L-32.3 -10.5L-7.6 -10.5Z" transform="translate(693 784)"></path><path d="M0 -43.4L9.7 -13.4L41.3 -13.4L15.8 5.1L25.5 35.1L0 16.6L-25.5 35.1L-15.8 5.1L-41.3 -13.4L-9.7 -13.4Z" transform="translate(174 459)"></path><path d="M0 -20.8L4.7 -6.4L19.7 -6.4L7.5 2.5L12.2 16.8L0 7.9L-12.2 16.8L-7.5 2.5L-19.7 -6.4L-4.7 -6.4Z" transform="translate(1287 639)"></path><path d="M0 -70.8L15.9 -21.9L67.3 -21.9L25.7 8.4L41.6 57.3L0 27L-41.6 57.3L-25.7 8.4L-67.3 -21.9L-15.9 -21.9Z" transform="translate(484 871)"></path><path d="M0 -75.5L17 -23.3L71.8 -23.3L27.4 8.9L44.4 61.1L0 28.8L-44.4 61.1L-27.4 8.9L-71.8 -23.3L-17 -23.3Z" transform="translate(1720 810)"></path><path d="M0 -63.2L14.2 -19.5L60.1 -19.5L23 7.5L37.2 51.2L0 24.2L-37.2 51.2L-23 7.5L-60.1 -19.5L-14.2 -19.5Z" transform="translate(1695 577)"></path><path d="M0 -63.2L14.2 -19.5L60.1 -19.5L23 7.5L37.2 51.2L0 24.2L-37.2 51.2L-23 7.5L-60.1 -19.5L-14.2 -19.5Z" transform="translate(1296 1063)"></path><path d="M0 -50L11.2 -15.5L47.6 -15.5L18.2 5.9L29.4 40.5L0 19.1L-29.4 40.5L-18.2 5.9L-47.6 -15.5L-11.2 -15.5Z" transform="translate(1357 399)"></path><path d="M0 -52.9L11.9 -16.3L50.3 -16.3L19.2 6.2L31.1 42.8L0 20.2L-31.1 42.8L-19.2 6.2L-50.3 -16.3L-11.9 -16.3Z" transform="translate(1559 231)"></path><path d="M0 -65.1L14.6 -20.1L61.9 -20.1L23.7 7.7L38.3 52.7L0 24.9L-38.3 52.7L-23.7 7.7L-61.9 -20.1L-14.6 -20.1Z" transform="translate(1534 15)"></path><path d="M0 -64.2L14.4 -19.8L61 -19.8L23.3 7.6L37.7 51.9L0 24.5L-37.7 51.9L-23.3 7.6L-61 -19.8L-14.4 -19.8Z" transform="translate(838 627)"></path><path d="M0 -11.3L2.5 -3.5L10.8 -3.5L4.1 1.3L6.7 9.2L0 4.3L-6.7 9.2L-4.1 1.3L-10.8 -3.5L-2.5 -3.5Z" transform="translate(67 20)"></path><path d="M0 -57.6L12.9 -17.8L54.8 -17.8L20.9 6.8L33.8 46.6L0 22L-33.8 46.6L-20.9 6.8L-54.8 -17.8L-12.9 -17.8Z" transform="translate(1111 714)"></path><path d="M0 -30.2L6.8 -9.3L28.7 -9.3L11 3.6L17.8 24.4L0 11.5L-17.8 24.4L-11 3.6L-28.7 -9.3L-6.8 -9.3Z" transform="translate(1939 164)"></path><path d="M0 -20.8L4.7 -6.4L19.7 -6.4L7.5 2.5L12.2 16.8L0 7.9L-12.2 16.8L-7.5 2.5L-19.7 -6.4L-4.7 -6.4Z" transform="translate(1553 1050)"></path><path d="M0 -9.4L2.1 -2.9L9 -2.9L3.4 1.1L5.5 7.6L0 3.6L-5.5 7.6L-3.4 1.1L-9 -2.9L-2.1 -2.9Z" transform="translate(514 196)"></path><path d="M0 -68L15.3 -21L64.6 -21L24.7 8L39.9 55L0 26L-39.9 55L-24.7 8L-64.6 -21L-15.3 -21Z" transform="translate(35 1077)"></path><path d="M0 -71.7L16.1 -22.2L68.2 -22.2L26.1 8.5L42.2 58L0 27.4L-42.2 58L-26.1 8.5L-68.2 -22.2L-16.1 -22.2Z" transform="translate(794 330)"></path><path d="M0 -17L3.8 -5.2L16.2 -5.2L6.2 2L10 13.7L0 6.5L-10 13.7L-6.2 2L-16.2 -5.2L-3.8 -5.2Z" transform="translate(151 640)"></path><path d="M0 -56.6L12.7 -17.5L53.9 -17.5L20.6 6.7L33.3 45.8L0 21.6L-33.3 45.8L-20.6 6.7L-53.9 -17.5L-12.7 -17.5Z" transform="translate(1226 889)"></path><path d="M0 -51.9L11.7 -16L49.4 -16L18.9 6.1L30.5 42L0 19.8L-30.5 42L-18.9 6.1L-49.4 -16L-11.7 -16Z" transform="translate(1361 214)"></path><path d="M0 -68L15.3 -21L64.6 -21L24.7 8L39.9 55L0 26L-39.9 55L-24.7 8L-64.6 -21L-15.3 -21Z" transform="translate(966 9)"></path><path d="M0 -31.1L7 -9.6L29.6 -9.6L11.3 3.7L18.3 25.2L0 11.9L-18.3 25.2L-11.3 3.7L-29.6 -9.6L-7 -9.6Z" transform="translate(490 1065)"></path><path d="M0 -68L15.3 -21L64.6 -21L24.7 8L39.9 55L0 26L-39.9 55L-24.7 8L-64.6 -21L-15.3 -21Z" transform="translate(1744 163)"></path><path d="M0 -6815.3 -21L64.6 -21L24.7 8L39.9 55L0 26L-39.9 55L-24.7 8L-64.6 -21L-15L.3 -21Z" transform="translate(432 538)"></path></g></svg>